# xmcd
#
# Track frame offsets:
#	150
#	20525
#	41542
#	58105
#	85635
#	100190
#	116412
#	131395
#
# Disc length: 2454 seconds
#
# Revision: 1
# Processed by: cddbd v1.5.2PL0 Copyright (c) Steve Scherf et al.
# Submitted via: EZCDAudioConverter 8.0.2.1
#
DISCID=5b099408
DTITLE=Various Artist - Ngũ Long Công Chúa. California Dreaming
DYEAR=1992
DGENRE=East Asia
TTITLE0=California Dreaming
TTITLE1=Mùa hè vô tạn
TTITLE2=Và con tim đã vui trở lại
TTITLE3=LK Hollywood Night
TTITLE4=The Sign
TTITLE5=Sukiyaki
TTITLE6=All That She Wants
TTITLE7=LKc Dream
EXTD=
EXTT0=
EXTT1=
EXTT2=
EXTT3=
EXTT4=
EXTT5=
EXTT6=
EXTT7=
PLAYORDER=
